<svg width="70" height="41" viewBox="0 0 70 41" fill="none" xmlns="http://www.w3.org/2000/svg">
<g id="Icon ionic-ios-fitness" clip-path="url(#clip0_1_405)">
<path id="Path 1" d="M50.051 24.578H20.1267C19.441 24.578 18.8799 24.0169 18.8799 23.3311V18.3438C18.8799 17.658 19.441 17.0969 20.1267 17.0969H50.051C50.7368 17.0969 51.2978 17.658 51.2978 18.3438V23.3311C51.2978 24.0169 50.7368 24.578 50.051 24.578Z" fill="#FD0054"/>
<path id="Path 2" d="M54.1025 37.3581V4.31676C54.1025 2.43091 55.6455 0.887939 57.5314 0.887939C59.4172 0.887939 60.9602 2.43091 60.9602 4.31676V37.3581C60.9602 39.244 59.4172 40.787 57.5314 40.787C55.6455 40.787 54.1025 39.244 54.1025 37.3581Z" fill="#FD0054"/>
<path id="Path 3" d="M66.8827 10.863H65.0125C64.3267 10.863 63.7656 11.4241 63.7656 12.1099V29.5657C63.7656 30.2515 64.3267 30.8126 65.0125 30.8126H66.8827C68.5971 30.8126 69.9999 29.4099 69.9999 27.6954V13.9801C69.9999 12.2657 68.5971 10.863 66.8827 10.863Z" fill="#FD0054"/>
<path id="Path 4" d="M16.0744 37.3581V4.31676C16.0744 2.43091 14.5315 0.887939 12.6456 0.887939C10.7598 0.887939 9.2168 2.43091 9.2168 4.31676V37.3581C9.2168 39.244 10.7598 40.787 12.6456 40.787C14.5315 40.787 16.0744 39.244 16.0744 37.3581Z" fill="#FD0054"/>
<path id="Path 5" d="M5.16414 10.863H3.29387C1.57946 10.863 0.176758 12.2657 0.176758 13.9801V27.6954C0.176758 29.4099 1.57946 30.8126 3.29387 30.8126H5.16414C5.8499 30.8126 6.41098 30.2515 6.41098 29.5657V12.1099C6.41098 11.4241 5.8499 10.863 5.16414 10.863Z" fill="#FD0054"/>
</g>
<defs>
<clipPath id="clip0_1_405">
<rect width="69.8232" height="39.899" fill="white" transform="translate(0.176758 0.887939)"/>
</clipPath>
</defs>
</svg>
