<svg width="79" height="60" viewBox="0 0 79 60" fill="none" xmlns="http://www.w3.org/2000/svg">
<g id="Icon ionic-ios-fitness" clip-path="url(#clip0_22_40)">
<path id="Path 1" d="M52.4418 38.0183L23.9997 28.7173C23.3479 28.5042 22.989 27.7965 23.2022 27.1447L24.7524 22.4043C24.9655 21.7525 25.6732 21.3936 26.325 21.6068L54.7671 30.9078C55.4189 31.1209 55.7778 31.8286 55.5646 32.4804L54.0145 37.2207C53.8013 37.8726 53.0936 38.2314 52.4418 38.0183Z" fill="white"/>
<path id="Path 2" d="M52.3207 51.425L62.5906 20.0202C63.1767 18.2278 65.1229 17.2408 66.9153 17.827C68.7077 18.4131 69.6947 20.3593 69.1086 22.1517L58.8387 53.5565C58.2525 55.349 56.3064 56.3359 54.514 55.7498C52.7215 55.1636 51.7346 53.2175 52.3207 51.425Z" fill="white"/>
<path id="Path 3" d="M72.703 30.2145L70.9254 29.6331C70.2736 29.42 69.5659 29.7789 69.3528 30.4307L63.9272 47.0219C63.714 47.6737 64.0729 48.3814 64.7247 48.5946L66.5024 49.1759C68.1318 49.7087 69.9011 48.8115 70.4339 47.182L74.6969 34.146C75.2298 32.5165 74.3325 30.7473 72.703 30.2145Z" fill="white"/>
<path id="Path 4" d="M16.1759 39.6049L26.4458 8.20004C27.0319 6.40759 26.045 4.46147 24.2525 3.87531C22.4601 3.28915 20.5139 4.27611 19.9278 6.06856L9.65794 37.4734C9.07179 39.2658 10.0588 41.212 11.8512 41.7981C13.6436 42.3843 15.5898 41.3973 16.1759 39.6049Z" fill="white"/>
<path id="Path 5" d="M14.0413 11.0311L12.2636 10.4498C10.6341 9.91694 8.86492 10.8142 8.33205 12.4437L4.06909 25.4796C3.53622 27.1091 4.43346 28.8783 6.06296 29.4112L7.84059 29.9925C8.49239 30.2057 9.20007 29.8468 9.41322 29.195L14.8388 12.6038C15.0519 11.952 14.6931 11.2443 14.0413 11.0311Z" fill="white"/>
</g>
<defs>
<clipPath id="clip0_22_40">
<rect width="69.8232" height="39.899" fill="white" transform="translate(12.4013) rotate(18.1085)"/>
</clipPath>
</defs>
</svg>
