<svg width="33" height="34" viewBox="0 0 33 34" fill="none" xmlns="http://www.w3.org/2000/svg">
<path id="Icon awesome-linkedin" fill-rule="evenodd" clip-rule="evenodd" d="M30.4462 0.378906H2.32929C1.04093 0.378906 -0.00585938 1.44032 -0.00585938 2.74329V30.8084C-0.00585938 32.1114 1.04093 33.1728 2.32929 33.1728H30.4462C31.7345 33.1728 32.7887 32.1114 32.7887 30.8084V2.74329C32.7887 1.44032 31.7345 0.378906 30.4462 0.378906ZM9.9057 28.4879H5.04508V12.8376H9.91302V28.4879H9.9057ZM7.47539 10.7002C5.91618 10.7002 4.65711 9.43382 4.65711 7.88197C4.65711 6.33011 5.91618 5.06374 7.47539 5.06374C9.02727 5.06374 10.2937 6.33011 10.2937 7.88197C10.2937 9.44114 9.03459 10.7002 7.47539 10.7002H7.47539ZM28.1257 28.4879H23.2651V20.8751C23.2651 19.0597 23.2285 16.7246 20.7396 16.7246C18.2068 16.7246 17.8188 18.701 17.8188 20.7433V28.4879H12.9582V12.8376H17.6212V14.9751H17.6871C18.3386 13.7453 19.9271 12.4497 22.2915 12.4497C27.2107 12.4497 28.1257 15.6925 28.1257 19.9088V28.4879Z" fill="#909090"/>
</svg>
