<svg width="38" height="32" viewBox="0 0 38 32" fill="none" xmlns="http://www.w3.org/2000/svg">
<path id="Icon awesome-twitter" d="M34.1517 8.34388C34.1755 8.6768 34.1755 9.00979 34.1755 9.34271C34.1755 19.4971 26.4466 31.1973 12.3205 31.1973C7.96845 31.1973 3.92565 29.9369 0.524902 27.7491C1.14324 27.8204 1.73771 27.8442 2.37984 27.8442C5.97077 27.8442 9.27643 26.6314 11.9162 24.5625C8.53921 24.4911 5.70922 22.2795 4.73417 19.2355C5.20983 19.3068 5.68543 19.3544 6.18488 19.3544C6.87452 19.3544 7.56423 19.2593 8.20629 19.0929C4.68666 18.3794 2.04685 15.2879 2.04685 11.5543V11.4592C3.06941 12.03 4.25857 12.3867 5.51889 12.4342C3.44991 11.0549 2.09443 8.70059 2.09443 6.03711C2.09443 4.61029 2.47486 3.30234 3.14078 2.16085C6.92203 6.8219 12.6058 9.8658 18.9791 10.1988C18.8603 9.62804 18.7889 9.03358 18.7889 8.43904C18.7889 4.206 22.2134 0.757812 26.4703 0.757812C28.6819 0.757812 30.6795 1.68526 32.0827 3.18346C33.8187 2.85054 35.4833 2.20843 36.9579 1.32856C36.387 3.11216 35.1742 4.61036 33.5809 5.56153C35.1267 5.39514 36.6249 4.96699 38.0042 4.37253C36.958 5.89444 35.6499 7.2499 34.1517 8.34388V8.34388Z" fill="#909090"/>
</svg>
