<svg width="41" height="29" viewBox="0 0 41 29" fill="none" xmlns="http://www.w3.org/2000/svg">
<path id="Icon awesome-youtube" fill-rule="evenodd" clip-rule="evenodd" d="M40.0749 4.53629C39.6151 2.8051 38.2604 1.44167 36.5404 0.978966C33.4227 0.138184 20.9212 0.138184 20.9212 0.138184C20.9212 0.138184 8.41974 0.138184 5.302 0.978966C3.58197 1.44174 2.22729 2.8051 1.76751 4.5363C0.932129 7.67418 0.932129 14.2211 0.932129 14.2211C0.932129 14.2211 0.932129 20.768 1.76751 23.9059C2.22729 25.6371 3.58197 26.9437 5.302 27.4064C8.41974 28.2472 20.9212 28.2472 20.9212 28.2472C20.9212 28.2472 33.4226 28.2472 36.5404 27.4064C38.2604 26.9437 39.6151 25.6371 40.0749 23.9059C40.9103 20.768 40.9103 14.2211 40.9103 14.2211C40.9103 14.2211 40.9103 7.67418 40.0749 4.5363V4.53629ZM16.8325 20.1652V8.27699L27.2813 14.2212L16.8325 20.1652V20.1652Z" fill="#909090"/>
</svg>
